%TF.GenerationSoftware,KiCad,Pcbnew,10.0.5*%
%TF.CreationDate,2026-09-17T17:18:21-04:00*%
%TF.ProjectId,musicalalarmclock,6d757369-6361-46c6-916c-61726d636c6f,rev?*%
%TF.SameCoordinates,Original*%
%TF.FileFunction,Legend,Bot*%
%TF.FilePolarity,Positive*%
%FSLAX46Y46*%
G04 Gerber Fmt 4.6, Leading zero omitted, Abs format (unit mm)*
G04 Created by KiCad (PCBNEW 10.0.5) date 2026-09-17 17:18:21*
%MOMM*%
%LPD*%
G01*
G04 APERTURE LIST*
%ADD10C,0.150000*%
%ADD11C,0.101600*%
%ADD12C,0.120000*%
%ADD13C,0.127000*%
%ADD14C,0.100000*%
%ADD15C,0.504000*%
G04 APERTURE END LIST*
D10*
X129844819Y-102666666D02*
X130559104Y-102666666D01*
X130559104Y-102666666D02*
X130701961Y-102619047D01*
X130701961Y-102619047D02*
X130797200Y-102523809D01*
X130797200Y-102523809D02*
X130844819Y-102380952D01*
X130844819Y-102380952D02*
X130844819Y-102285714D01*
X130844819Y-103666666D02*
X130844819Y-103095238D01*
X130844819Y-103380952D02*
X129844819Y-103380952D01*
X129844819Y-103380952D02*
X129987676Y-103285714D01*
X129987676Y-103285714D02*
X130082914Y-103190476D01*
X130082914Y-103190476D02*
X130130533Y-103095238D01*
X161731009Y-97619047D02*
X161778628Y-97761904D01*
X161778628Y-97761904D02*
X161826247Y-97809523D01*
X161826247Y-97809523D02*
X161921485Y-97857142D01*
X161921485Y-97857142D02*
X162064342Y-97857142D01*
X162064342Y-97857142D02*
X162159580Y-97809523D01*
X162159580Y-97809523D02*
X162207200Y-97761904D01*
X162207200Y-97761904D02*
X162254819Y-97666666D01*
X162254819Y-97666666D02*
X162254819Y-97285714D01*
X162254819Y-97285714D02*
X161254819Y-97285714D01*
X161254819Y-97285714D02*
X161254819Y-97619047D01*
X161254819Y-97619047D02*
X161302438Y-97714285D01*
X161302438Y-97714285D02*
X161350057Y-97761904D01*
X161350057Y-97761904D02*
X161445295Y-97809523D01*
X161445295Y-97809523D02*
X161540533Y-97809523D01*
X161540533Y-97809523D02*
X161635771Y-97761904D01*
X161635771Y-97761904D02*
X161683390Y-97714285D01*
X161683390Y-97714285D02*
X161731009Y-97619047D01*
X161731009Y-97619047D02*
X161731009Y-97285714D01*
X161254819Y-98190476D02*
X161254819Y-98857142D01*
X161254819Y-98857142D02*
X162254819Y-98190476D01*
X162254819Y-98190476D02*
X162254819Y-98857142D01*
X162254819Y-99761904D02*
X162254819Y-99190476D01*
X162254819Y-99476190D02*
X161254819Y-99476190D01*
X161254819Y-99476190D02*
X161397676Y-99380952D01*
X161397676Y-99380952D02*
X161492914Y-99285714D01*
X161492914Y-99285714D02*
X161540533Y-99190476D01*
X166533866Y-94309048D02*
X166533866Y-95070953D01*
X166914819Y-94690000D02*
X166152914Y-94690000D01*
D11*
X155621520Y-96258809D02*
X155107473Y-96258809D01*
X155107473Y-96258809D02*
X155046997Y-96228571D01*
X155046997Y-96228571D02*
X155016759Y-96198333D01*
X155016759Y-96198333D02*
X154986520Y-96137857D01*
X154986520Y-96137857D02*
X154986520Y-96016904D01*
X154986520Y-96016904D02*
X155016759Y-95956428D01*
X155016759Y-95956428D02*
X155046997Y-95926190D01*
X155046997Y-95926190D02*
X155107473Y-95895952D01*
X155107473Y-95895952D02*
X155621520Y-95895952D01*
X154986520Y-95260952D02*
X154986520Y-95623809D01*
X154986520Y-95442381D02*
X155621520Y-95442381D01*
X155621520Y-95442381D02*
X155530806Y-95502857D01*
X155530806Y-95502857D02*
X155470330Y-95563333D01*
X155470330Y-95563333D02*
X155440092Y-95623809D01*
%TO.C,J1*%
D12*
X108510000Y-104330000D02*
X108510000Y-101670000D01*
X126350000Y-101670000D02*
X108510000Y-101670000D01*
X126350000Y-104330000D02*
X108510000Y-104330000D01*
X126350000Y-104330000D02*
X126350000Y-101670000D01*
X128950000Y-101670000D02*
X127620000Y-101670000D01*
X128950000Y-103000000D02*
X128950000Y-101670000D01*
%TO.C,BZ1*%
X175100000Y-98500000D02*
G75*
G02*
X162900000Y-98500000I-6100000J0D01*
G01*
X162900000Y-98500000D02*
G75*
G02*
X175100000Y-98500000I6100000J0D01*
G01*
%TO.C,U1*%
D13*
X136110000Y-104009000D02*
X136110000Y-86864000D01*
D14*
X138015000Y-84959000D02*
X151985000Y-84959000D01*
D13*
X138015000Y-84959000D02*
X151985000Y-84959000D01*
X140496000Y-83949000D02*
X140496000Y-84959000D01*
X148991272Y-83449000D02*
X140996000Y-83449000D01*
X149495000Y-84959000D02*
X149491272Y-83948728D01*
X151985000Y-105914000D02*
X138015000Y-105914000D01*
X153890000Y-104009000D02*
X153890000Y-86864000D01*
X136110000Y-86864000D02*
G75*
G02*
X138015000Y-84959000I1905000J0D01*
G01*
X138015000Y-105914000D02*
G75*
G02*
X136110000Y-104009000I1J1905001D01*
G01*
X140496000Y-83949000D02*
G75*
G02*
X140996000Y-83449000I500000J0D01*
G01*
X148991272Y-83449000D02*
G75*
G02*
X149491300Y-83948728I28J-500000D01*
G01*
X151985000Y-84959000D02*
G75*
G02*
X153890000Y-86864000I0J-1905000D01*
G01*
X153890000Y-104009000D02*
G75*
G02*
X151985000Y-105914000I-1905001J1D01*
G01*
D15*
X153109000Y-86130000D02*
G75*
G02*
X152605000Y-86130000I-252000J0D01*
G01*
X152605000Y-86130000D02*
G75*
G02*
X153109000Y-86130000I252000J0D01*
G01*
X154252000Y-85250000D02*
G75*
G02*
X153748000Y-85250000I-252000J0D01*
G01*
X153748000Y-85250000D02*
G75*
G02*
X154252000Y-85250000I252000J0D01*
G01*
%TD*%
M02*
