%TF.GenerationSoftware,KiCad,Pcbnew,10.0.5*%
%TF.CreationDate,2026-09-17T17:18:21-04:00*%
%TF.ProjectId,musicalalarmclock,6d757369-6361-46c6-916c-61726d636c6f,rev?*%
%TF.SameCoordinates,Original*%
%TF.FileFunction,Copper,L2,Bot*%
%TF.FilePolarity,Positive*%
%FSLAX46Y46*%
G04 Gerber Fmt 4.6, Leading zero omitted, Abs format (unit mm)*
G04 Created by KiCad (PCBNEW 10.0.5) date 2026-09-17 17:18:21*
%MOMM*%
%LPD*%
G01*
G04 APERTURE LIST*
G04 Aperture macros list*
%AMRoundRect*
0 Rectangle with rounded corners*
0 $1 Rounding radius*
0 $2 $3 $4 $5 $6 $7 $8 $9 X,Y pos of 4 corners*
0 Add a 4 corners polygon primitive as box body*
4,1,4,$2,$3,$4,$5,$6,$7,$8,$9,$2,$3,0*
0 Add four circle primitives for the rounded corners*
1,1,$1+$1,$2,$3*
1,1,$1+$1,$4,$5*
1,1,$1+$1,$6,$7*
1,1,$1+$1,$8,$9*
0 Add four rect primitives between the rounded corners*
20,1,$1+$1,$2,$3,$4,$5,0*
20,1,$1+$1,$4,$5,$6,$7,0*
20,1,$1+$1,$6,$7,$8,$9,0*
20,1,$1+$1,$8,$9,$2,$3,0*%
G04 Aperture macros list end*
%TA.AperFunction,ComponentPad*%
%ADD10C,2.200000*%
%TD*%
%TA.AperFunction,ComponentPad*%
%ADD11R,1.700000X1.700000*%
%TD*%
%TA.AperFunction,ComponentPad*%
%ADD12C,1.700000*%
%TD*%
%TA.AperFunction,ComponentPad*%
%ADD13R,2.000000X2.000000*%
%TD*%
%TA.AperFunction,ComponentPad*%
%ADD14C,2.000000*%
%TD*%
%TA.AperFunction,ComponentPad*%
%ADD15C,1.524000*%
%TD*%
%TA.AperFunction,SMDPad,CuDef*%
%ADD16RoundRect,0.152400X-1.063600X-0.609600X1.063600X-0.609600X1.063600X0.609600X-1.063600X0.609600X0*%
%TD*%
%TA.AperFunction,SMDPad,CuDef*%
%ADD17RoundRect,0.152400X1.063600X0.609600X-1.063600X0.609600X-1.063600X-0.609600X1.063600X-0.609600X0*%
%TD*%
%TA.AperFunction,ViaPad*%
%ADD18C,0.600000*%
%TD*%
%TA.AperFunction,Conductor*%
%ADD19C,0.200000*%
%TD*%
G04 APERTURE END LIST*
D10*
%TO.P,SW3,1,1_1*%
%TO.N,GND*%
X155960000Y-110420000D03*
%TO.P,SW3,2,2_2*%
%TO.N,Net-(U1-D1)*%
X149610000Y-112960000D03*
%TD*%
%TO.P,SW1,1,1_1*%
%TO.N,GND*%
X117880000Y-110420000D03*
%TO.P,SW1,2,2_2*%
%TO.N,Net-(U1-D3)*%
X111530000Y-112960000D03*
%TD*%
%TO.P,SW4,1,1_1*%
%TO.N,GND*%
X174880000Y-110420000D03*
%TO.P,SW4,2,2_2*%
%TO.N,Net-(U1-D0)*%
X168530000Y-112960000D03*
%TD*%
%TO.P,SW2,1,1_1*%
%TO.N,GND*%
X136880000Y-110420000D03*
%TO.P,SW2,2,2_2*%
%TO.N,Net-(U1-D2)*%
X130530000Y-112960000D03*
%TD*%
D11*
%TO.P,J1,1,Pin_1_1*%
%TO.N,GND*%
X127620000Y-103000000D03*
D12*
%TO.P,J1,2,Pin_2_2*%
%TO.N,+3.3V*%
X125080000Y-103000000D03*
%TO.P,J1,3,Pin_3_3*%
%TO.N,/SCL*%
X122540000Y-103000000D03*
%TO.P,J1,4,Pin_4_4*%
%TO.N,/SDA*%
X120000000Y-103000000D03*
%TO.P,J1,5,Pin_5_5*%
%TO.N,/RST*%
X117460000Y-103000000D03*
%TO.P,J1,6,Pin_6_6*%
%TO.N,/DC*%
X114920000Y-103000000D03*
%TO.P,J1,7,Pin_7_7*%
%TO.N,/CS*%
X112380000Y-103000000D03*
%TO.P,J1,8,Pin_8_8*%
%TO.N,/BL*%
X109840000Y-103000000D03*
%TD*%
D13*
%TO.P,BZ1,1,+_1*%
%TO.N,Net-(BZ1-+)*%
X169000000Y-94700000D03*
D14*
%TO.P,BZ1,2,-_2*%
%TO.N,GND*%
X169000000Y-102300000D03*
%TD*%
D15*
%TO.P,U1,1,D0_1*%
%TO.N,Net-(U1-D0)*%
X152620000Y-87880000D03*
D16*
X153455000Y-87880000D03*
D15*
%TO.P,U1,2,D1_2*%
%TO.N,Net-(U1-D1)*%
X152620000Y-90420000D03*
D16*
X153455000Y-90420000D03*
D15*
%TO.P,U1,3,D2_3*%
%TO.N,Net-(U1-D2)*%
X152620000Y-92960000D03*
D16*
X153455000Y-92960000D03*
D15*
%TO.P,U1,4,D3_4*%
%TO.N,Net-(U1-D3)*%
X152620000Y-95500000D03*
D16*
X153455000Y-95500000D03*
D15*
%TO.P,U1,5,D4_5*%
%TO.N,/DC*%
X152620000Y-98040000D03*
D16*
X153455000Y-98040000D03*
D15*
%TO.P,U1,6,D5_6*%
%TO.N,/CS*%
X152620000Y-100580000D03*
D16*
X153455000Y-100580000D03*
D15*
%TO.P,U1,7,D6_7*%
%TO.N,/BL*%
X152620000Y-103120000D03*
D16*
X153455000Y-103120000D03*
D17*
%TO.P,U1,8,D7_8*%
%TO.N,Net-(BZ1-+)*%
X136545000Y-103120000D03*
D15*
X137380000Y-103120000D03*
D17*
%TO.P,U1,9,D8_9*%
%TO.N,/RST*%
X136545000Y-100580000D03*
D15*
X137380000Y-100580000D03*
D17*
%TO.P,U1,10,D9/BOOT_10*%
%TO.N,/SCL*%
X136545000Y-98040000D03*
D15*
X137380000Y-98040000D03*
D17*
%TO.P,U1,11,D10_11*%
%TO.N,/SDA*%
X136545000Y-95500000D03*
D15*
X137380000Y-95500000D03*
D17*
%TO.P,U1,12,3V3_OUT_12*%
%TO.N,+3.3V*%
X136545000Y-92960000D03*
D15*
X137380000Y-92960000D03*
D17*
%TO.P,U1,13,GND_13*%
%TO.N,GND*%
X136545000Y-90420000D03*
D15*
X137380000Y-90420000D03*
D17*
%TO.P,U1,14,VBUS_14*%
%TO.N,unconnected-(U1-VBUS-Pad14)_1*%
X136545000Y-87880000D03*
D15*
%TO.N,unconnected-(U1-VBUS-Pad14)*%
X137380000Y-87880000D03*
%TD*%
D18*
%TO.N,Net-(U1-D1)*%
X150500000Y-111020000D03*
%TO.N,+3.3V*%
X137380000Y-92960000D03*
%TO.N,/SCL*%
X122500000Y-101000000D03*
%TO.N,/SDA*%
X120007168Y-101250000D03*
%TO.N,/RST*%
X124500000Y-95500000D03*
%TO.N,/DC*%
X122052849Y-100052849D03*
%TO.N,/CS*%
X149900000Y-93500000D03*
X149900000Y-100500000D03*
%TO.N,/BL*%
X148500000Y-93838000D03*
%TO.N,Net-(BZ1-+)*%
X141000000Y-90500000D03*
%TD*%
%TO.N,Net-(U1-D1)*%
D19*
X150500000Y-92540000D02*
X152620000Y-90420000D01*
X150500000Y-111020000D02*
X150500000Y-92540000D01*
%TO.N,+3.3V*%
X123900000Y-101820000D02*
X123900000Y-95251471D01*
X126191471Y-92960000D02*
X137380000Y-92960000D01*
X125080000Y-103000000D02*
X123900000Y-101820000D01*
X123900000Y-95251471D02*
X126191471Y-92960000D01*
%TO.N,/SCL*%
X122540000Y-101040000D02*
X122540000Y-103000000D01*
X122500000Y-101000000D02*
X122540000Y-101040000D01*
%TO.N,/SDA*%
X120007168Y-102992832D02*
X120000000Y-103000000D01*
X120007168Y-101250000D02*
X120007168Y-102992832D01*
%TO.N,/RST*%
X124500000Y-95500000D02*
X129580000Y-100580000D01*
X129580000Y-100580000D02*
X137380000Y-100580000D01*
%TO.N,/DC*%
X117867151Y-100052849D02*
X114920000Y-103000000D01*
X122052849Y-100052849D02*
X117867151Y-100052849D01*
%TO.N,/CS*%
X149900000Y-93500000D02*
X149900000Y-100500000D01*
%TO.N,/BL*%
X148500000Y-93038105D02*
X152180105Y-89358000D01*
X148500000Y-93838000D02*
X148500000Y-93038105D01*
X152180105Y-89358000D02*
X154710214Y-89358000D01*
X154710214Y-89358000D02*
X154971000Y-89618786D01*
X154971000Y-89618786D02*
X154971000Y-101381214D01*
X154971000Y-101381214D02*
X153232214Y-103120000D01*
X153232214Y-103120000D02*
X152620000Y-103120000D01*
%TO.N,Net-(BZ1-+)*%
X141000000Y-99500000D02*
X137380000Y-103120000D01*
X141000000Y-90500000D02*
X141000000Y-99500000D01*
%TD*%
M02*
