M48
; DRILL file KiCad 10.0.5 date 2026-08-30T07:28:46
; FORMAT={-:-/ absolute / metric / decimal}
; #@! TF.CreationDate,2026-08-30T07:28:46-04:00
; #@! TF.GenerationSoftware,Kicad,Pcbnew,10.0.5
; #@! TF.FileFunction,Plated,1,2,PTH
FMAT,2
METRIC
; #@! TA.AperFunction,Plated,PTH,ViaDrill
T1C0.300
; #@! TA.AperFunction,Plated,PTH,ComponentDrill
T2C0.889
; #@! TA.AperFunction,Plated,PTH,ComponentDrill
T3C1.000
; #@! TA.AperFunction,Plated,PTH,ComponentDrill
T4C1.500
%
G90
G05
T1
X120.007Y-101.25
X122.053Y-100.053
X122.5Y-101.0
X124.5Y-95.5
X137.38Y-92.96
X141.0Y-90.5
X148.5Y-93.838
X149.9Y-93.5
X149.9Y-100.5
X150.5Y-111.02
T2
X137.38Y-87.88
X137.38Y-90.42
X137.38Y-92.96
X137.38Y-95.5
X137.38Y-98.04
X137.38Y-100.58
X137.38Y-103.12
X152.62Y-87.88
X152.62Y-90.42
X152.62Y-92.96
X152.62Y-95.5
X152.62Y-98.04
X152.62Y-100.58
X152.62Y-103.12
T3
X109.84Y-103.0
X112.38Y-103.0
X114.92Y-103.0
X117.46Y-103.0
X120.0Y-103.0
X122.54Y-103.0
X125.08Y-103.0
X127.62Y-103.0
X169.0Y-94.7
X169.0Y-102.3
T4
X111.53Y-112.96
X117.88Y-110.42
X130.53Y-112.96
X136.88Y-110.42
X149.61Y-112.96
X155.96Y-110.42
X168.53Y-112.96
X174.88Y-110.42
M30
