%TF.GenerationSoftware,KiCad,Pcbnew,10.0.5*%
%TF.CreationDate,2026-09-17T17:18:21-04:00*%
%TF.ProjectId,musicalalarmclock,6d757369-6361-46c6-916c-61726d636c6f,rev?*%
%TF.SameCoordinates,Original*%
%TF.FileFunction,Soldermask,Bot*%
%TF.FilePolarity,Negative*%
%FSLAX46Y46*%
G04 Gerber Fmt 4.6, Leading zero omitted, Abs format (unit mm)*
G04 Created by KiCad (PCBNEW 10.0.5) date 2026-09-17 17:18:21*
%MOMM*%
%LPD*%
G01*
G04 APERTURE LIST*
G04 Aperture macros list*
%AMRoundRect*
0 Rectangle with rounded corners*
0 $1 Rounding radius*
0 $2 $3 $4 $5 $6 $7 $8 $9 X,Y pos of 4 corners*
0 Add a 4 corners polygon primitive as box body*
4,1,4,$2,$3,$4,$5,$6,$7,$8,$9,$2,$3,0*
0 Add four circle primitives for the rounded corners*
1,1,$1+$1,$2,$3*
1,1,$1+$1,$4,$5*
1,1,$1+$1,$6,$7*
1,1,$1+$1,$8,$9*
0 Add four rect primitives between the rounded corners*
20,1,$1+$1,$2,$3,$4,$5,0*
20,1,$1+$1,$4,$5,$6,$7,0*
20,1,$1+$1,$6,$7,$8,$9,0*
20,1,$1+$1,$8,$9,$2,$3,0*%
G04 Aperture macros list end*
%ADD10C,1.700000*%
%ADD11C,4.000000*%
%ADD12C,2.200000*%
%ADD13C,3.200000*%
%ADD14R,1.700000X1.700000*%
%ADD15R,2.000000X2.000000*%
%ADD16C,2.000000*%
%ADD17C,1.524000*%
%ADD18RoundRect,0.152400X-1.063600X-0.609600X1.063600X-0.609600X1.063600X0.609600X-1.063600X0.609600X0*%
%ADD19RoundRect,0.152400X1.063600X0.609600X-1.063600X0.609600X-1.063600X-0.609600X1.063600X-0.609600X0*%
G04 APERTURE END LIST*
D10*
%TO.C,SW3*%
X148340000Y-115500000D03*
D11*
X153420000Y-115500000D03*
D10*
X158500000Y-115500000D03*
D12*
X155960000Y-110420000D03*
X149610000Y-112960000D03*
%TD*%
D13*
%TO.C,H1*%
X104000000Y-89500000D03*
%TD*%
D10*
%TO.C,SW1*%
X110260000Y-115500000D03*
D11*
X115340000Y-115500000D03*
D10*
X120420000Y-115500000D03*
D12*
X117880000Y-110420000D03*
X111530000Y-112960000D03*
%TD*%
D13*
%TO.C,H2*%
X104000000Y-128000000D03*
%TD*%
%TO.C,H3*%
X185500000Y-89500000D03*
%TD*%
D10*
%TO.C,SW4*%
X167260000Y-115500000D03*
D11*
X172340000Y-115500000D03*
D10*
X177420000Y-115500000D03*
D12*
X174880000Y-110420000D03*
X168530000Y-112960000D03*
%TD*%
D13*
%TO.C,H4*%
X185000000Y-128500000D03*
%TD*%
D10*
%TO.C,SW2*%
X129260000Y-115500000D03*
D11*
X134340000Y-115500000D03*
D10*
X139420000Y-115500000D03*
D12*
X136880000Y-110420000D03*
X130530000Y-112960000D03*
%TD*%
D14*
%TO.C,J1*%
X127620000Y-103000000D03*
D10*
X125080000Y-103000000D03*
X122540000Y-103000000D03*
X120000000Y-103000000D03*
X117460000Y-103000000D03*
X114920000Y-103000000D03*
X112380000Y-103000000D03*
X109840000Y-103000000D03*
%TD*%
D15*
%TO.C,BZ1*%
X169000000Y-94700000D03*
D16*
X169000000Y-102300000D03*
%TD*%
D17*
%TO.C,U1*%
X152620000Y-87880000D03*
D18*
X153455000Y-87880000D03*
D17*
X152620000Y-90420000D03*
D18*
X153455000Y-90420000D03*
D17*
X152620000Y-92960000D03*
D18*
X153455000Y-92960000D03*
D17*
X152620000Y-95500000D03*
D18*
X153455000Y-95500000D03*
D17*
X152620000Y-98040000D03*
D18*
X153455000Y-98040000D03*
D17*
X152620000Y-100580000D03*
D18*
X153455000Y-100580000D03*
D17*
X152620000Y-103120000D03*
D18*
X153455000Y-103120000D03*
D19*
X136545000Y-103120000D03*
D17*
X137380000Y-103120000D03*
D19*
X136545000Y-100580000D03*
D17*
X137380000Y-100580000D03*
D19*
X136545000Y-98040000D03*
D17*
X137380000Y-98040000D03*
D19*
X136545000Y-95500000D03*
D17*
X137380000Y-95500000D03*
D19*
X136545000Y-92960000D03*
D17*
X137380000Y-92960000D03*
D19*
X136545000Y-90420000D03*
D17*
X137380000Y-90420000D03*
D19*
X136545000Y-87880000D03*
D17*
X137380000Y-87880000D03*
%TD*%
M02*
